# xmcd CD database file
#
# Track frame offsets:
#	150
#	25629
#	43107
#	64865
#	90303
#	106144
#	127141
#	146025
#	162742
#	200069
#	221923
#	248800
#
# Disc length: 4070 seconds
#
# Revision: 0
# Processed by: cddbd v1.5.2PL0 Copyright (c) Steve Scherf et al.
# Submitted via: CDex 1.51
#
DISCID=b50fe40c
DTITLE=Petrovitch Harmonica Man and The Hot Rod Band - Petrovitch Harmonica Man and The Hot Rod Band
DYEAR=2006
DGENRE=Jazz
TTITLE0=Bom, Bom Boogie
TTITLE1=I'm A Bluesman
TTITLE2=Whoe-Yeah
TTITLE3=Louise
TTITLE4=Sitting On Top Of The World
TTITLE5=Train Time
TTITLE6=Strange Brew
TTITLE7=The Hucklebuck
TTITLE8=Goodmorning, Mr. Blues
TTITLE9=Help Me
TTITLE10=Ying-Yang
TTITLE11=See My Baby
EXTD=YEAR: 2006
EXTT0=
EXTT1=
EXTT2=
EXTT3=
EXTT4=
EXTT5=
EXTT6=
EXTT7=
EXTT8=
EXTT9=
EXTT10=
EXTT11=
PLAYORDER=
